<svg width="32" height="32" viewBox="0 0 32 32" fill="none" xmlns="http://www.w3.org/2000/svg">
    <path fill-rule="evenodd" clip-rule="evenodd" d="M15.9999 8.85618e-07C12.1995 -0.00126296 8.52286 1.35021 5.62807 3.81245C2.73329 6.27468 0.809436 9.68691 0.200956 13.4382C-0.407524 17.1895 0.339103 21.0349 2.30716 24.2859C4.27522 27.5369 7.3362 29.9813 10.9421 31.1813C11.7369 31.3297 12.0336 30.8342 12.0336 30.4103C12.0336 30.0288 12.0204 28.7703 12.0124 27.4324C7.56137 28.3994 6.62347 25.546 6.62347 25.546C5.89487 23.6913 4.84569 23.2038 4.84569 23.2038C3.3938 22.2103 4.95432 22.2315 4.95432 22.2315C6.56253 22.3454 7.4077 23.8795 7.4077 23.8795C8.83576 26.3249 11.1514 25.6201 12.0628 25.2042C12.2085 24.1709 12.6218 23.4661 13.0802 23.0661C9.53786 22.666 5.78889 21.2936 5.78889 15.1628C5.76511 13.5704 6.35633 12.0302 7.4395 10.8627C7.27258 10.46 6.72415 8.83325 7.59317 6.62362C7.59317 6.62362 8.93643 6.19441 11.9939 8.26362C14.6173 7.54649 17.3851 7.54649 20.0085 8.26362C23.05 6.205 24.4039 6.62362 24.4039 6.62362C25.2729 8.82795 24.7271 10.4547 24.5602 10.8627C25.6404 12.0295 26.2296 13.5676 26.2055 15.1575C26.2055 21.3042 22.4645 22.6554 18.901 23.0528C19.4733 23.5483 19.9846 24.5233 19.9846 26.0149C19.9846 28.1557 19.9687 29.8805 19.9687 30.405C19.9687 30.8316 20.2549 31.3297 21.0656 31.1734C24.6662 29.9688 27.7212 27.523 29.6844 24.2732C31.6476 21.0233 32.3911 17.1813 31.7822 13.4336C31.1732 9.686 29.2513 6.27706 26.3601 3.81609C23.4688 1.35511 19.7966 0.00250277 15.9999 8.85618e-07Z" fill="#DADADA"/>
</svg>
