<svg width="32" height="32" viewBox="0 0 32 32" fill="none" xmlns="http://www.w3.org/2000/svg">
<path fill-rule="evenodd" clip-rule="evenodd" d="M15.9997 8.85618e-07C12.1994 -0.00126296 8.52274 1.35021 5.62796 3.81245C2.73318 6.27468 0.809321 9.68691 0.200841 13.4382C-0.407639 17.1895 0.338989 21.0349 2.30705 24.2859C4.27511 27.5369 7.33609 29.9813 10.9419 31.1813C11.7368 31.3297 12.0335 30.8342 12.0335 30.4103C12.0335 30.0288 12.0203 28.7703 12.0123 27.4324C7.56126 28.3994 6.62335 25.546 6.62335 25.546C5.89476 23.6913 4.84558 23.2038 4.84558 23.2038C3.39368 22.2103 4.9542 22.2315 4.9542 22.2315C6.56242 22.3454 7.40759 23.8795 7.40759 23.8795C8.83564 26.3249 11.1513 25.6201 12.0627 25.2042C12.2084 24.1709 12.6217 23.4661 13.0801 23.0661C9.53774 22.666 5.78878 21.2936 5.78878 15.1628C5.765 13.5704 6.35622 12.0302 7.43938 10.8627C7.27247 10.46 6.72403 8.83325 7.59305 6.62362C7.59305 6.62362 8.93632 6.19441 11.9938 8.26362C14.6172 7.54649 17.385 7.54649 20.0084 8.26362C23.0499 6.205 24.4038 6.62362 24.4038 6.62362C25.2728 8.82795 24.727 10.4547 24.5601 10.8627C25.6403 12.0295 26.2295 13.5676 26.2054 15.1575C26.2054 21.3042 22.4644 22.6554 18.9009 23.0528C19.4732 23.5483 19.9845 24.5233 19.9845 26.0149C19.9845 28.1557 19.9686 29.8805 19.9686 30.405C19.9686 30.8316 20.2548 31.3297 21.0655 31.1734C24.6661 29.9688 27.721 27.523 29.6843 24.2732C31.6475 21.0233 32.391 17.1813 31.782 13.4336C31.173 9.686 29.2512 6.27706 26.3599 3.81609C23.4687 1.35511 19.7965 0.00250277 15.9997 8.85618e-07Z" fill="white"/>
</svg>
