<?xml version="1.0" encoding="iso-8859-1"?>
<!-- Generator: Adobe Illustrator 16.0.0, SVG Export Plug-In . SVG Version: 6.00 Build 0)  -->
<!DOCTYPE svg PUBLIC "-//W3C//DTD SVG 1.1//EN" "http://www.w3.org/Graphics/SVG/1.1/DTD/svg11.dtd">
<svg fill="#3a28a7" version="1.1" id="Capa_1" xmlns="http://www.w3.org/2000/svg" xmlns:xlink="http://www.w3.org/1999/xlink" x="0px" y="0px"
	 width="320px" height="320px" viewBox="0 0 972.997 972.997" style="enable-background:new 0 0 972.997 972.997;"
	 xml:space="preserve">
<g>
	<path d="M684.098,411.497H536.297l45.4-71.2h75.701l0,0c6.398,0,12.5-2,17.699-5.8l136.4-99.5c13.4-9.8,16.299-28.5,6.6-41.9
		c-9.801-13.4-28.5-16.3-41.9-6.6l-128.5,93.7l-250.5,0.3c-11.5,0-22.2,5.9-28.4,15.6l-133.8,259.2l-42.4,54.5l-132.8,32.3
		c-22.8,5.6-36.8,28.5-31.2,51.3c4.7,19.5,22.1,32.5,41.2,32.5c3.3,0,6.7-0.4,10.1-1.2l147.2-35.8c9.3-2.3,17.6-7.6,23.5-15.2
		c0,0,75.7-97.399,76.3-98.399c0,0,46.199,0.1,46.3,0.1l102,33.2l-26.5,166.6c-3.7,23.2,12.1,45,35.3,48.601
		c2.3,0.399,4.5,0.5,6.7,0.5c20.5,0,38.6-14.9,41.9-35.801l32.1-202.399c3.301-20.601-8.9-40.601-28.799-47.101l-67.101-21.899
		l29.201-45.8l186.1,0.1l0,0c16.6,0,30-13.4,30-30C714.098,424.897,700.698,411.497,684.098,411.497z"/>
	<path d="M565.499,204.998c0.9-0.2,1.799-0.5,2.699-0.7c0.9-0.2,1.801,0.2,2.201,0.9c1.299,2.5,2.6,4.9,4.1,7.4
		c3.5,5.9,7.699,11.6,13.799,15.2c6.301,3.7,14.201,4.6,21.4,3.7c6.1-0.8,11.5-3.1,16.9-6.1c1.5-0.8,2.199-2.5,1.801-4.1
		c-2.701-10.9-12.701-50.4-12.701-50.4c-0.5-2-2.5-3.4-4.6-3.1l-58.1,7.3c-1.301,0.2-2.5-0.8-2.5-2.1c0-4.5,0.6-8.6,2.799-12.5
		c5.301-9.7,15.4-14,21.9-22.6c9.5-12.5-2-26.1-11.1-35c-10.199-10-22.699-18-35.9-23.3c-21.299-8.6-45.1-9.1-66.5-0.7
		c-48.4,18.9-71.4,76-51.3,127.3c8.399,21.5,23.1,39.9,42.3,51.5c1.8,1.1,3.899,1.2,5.8,0.5l6.4-2.5c1.8-0.7,3.3-2.1,3.899-3.9
		c0.4-1.1,1.3-2.2,3.4-3c1.6-0.6,3.6-1,5.8-1.2c7.5-0.7,14.799,1.4,21.901,3.4c8.299,2.3,16,3.4,24.6,2.3
		c20.6-2.5,41.699-15.9,40.5-39c-0.1-2.4-0.4-4.7-0.9-6.8C563.899,206.197,564.499,205.297,565.499,204.998z M525.999,159.397
		c-6.4,2.5-13.701-0.7-16.201-7.1s0.701-13.7,7.102-16.2c6.398-2.5,13.699,0.7,16.199,7.1
		C535.598,149.598,532.399,156.797,525.999,159.397z"/>
	<polygon points="459.898,847.897 423.498,972.997 570.698,972.997 534.297,847.897 	"/>
	<polygon points="1.598,972.997 148.698,972.997 259.498,847.897 184.998,847.897 	"/>
	<polygon points="713.499,847.897 824.297,972.997 971.399,972.997 787.999,847.897 	"/>
	<path d="M763.499,10.897c-5.9,38.3,5.699,77.2,34.699,103.3c29,26.1,68.9,33.6,106.4,23.6c3.1-0.8,5.4-3.4,5.9-6.6
		c5.9-38.3-5.701-77.2-34.701-103.3s-68.898-33.6-106.398-23.7C766.297,5.098,763.999,7.697,763.499,10.897z"/>
</g>
<g>
</g>
<g>
</g>
<g>
</g>
<g>
</g>
<g>
</g>
<g>
</g>
<g>
</g>
<g>
</g>
<g>
</g>
<g>
</g>
<g>
</g>
<g>
</g>
<g>
</g>
<g>
</g>
<g>
</g>
</svg>
